<svg 
 xmlns="http://www.w3.org/2000/svg"
 xmlns:xlink="http://www.w3.org/1999/xlink"
 width="12px" height="11px">
<path fill-rule="evenodd"  opacity="0.4"
 d="M10.613,0.694 C10.477,0.289 10.103,0.000 9.667,0.000 L2.333,0.000 C1.897,0.000 1.523,0.289 1.387,0.694 L-0.000,4.813 L-0.000,10.313 C-0.000,10.690 0.300,11.000 0.667,11.000 L1.333,11.000 C1.703,11.000 2.000,10.690 2.000,10.313 L2.000,9.000 L10.000,9.000 L10.000,10.313 C10.000,10.690 10.300,11.000 10.667,11.000 L11.333,11.000 C11.703,11.000 12.000,10.690 12.000,10.313 L12.000,4.813 L10.613,0.694 ZM2.333,7.563 C1.780,7.563 1.333,7.102 1.333,6.531 C1.333,5.961 1.780,5.500 2.333,5.500 C2.887,5.500 3.333,5.961 3.333,6.531 C3.333,7.102 2.887,7.563 2.333,7.563 ZM9.667,7.563 C9.113,7.563 8.667,7.102 8.667,6.531 C8.667,5.961 9.113,5.500 9.667,5.500 C10.220,5.500 10.667,5.961 10.667,6.531 C10.667,7.102 10.220,7.563 9.667,7.563 ZM1.333,4.125 L2.333,1.031 L9.667,1.031 L10.667,4.125 L1.333,4.125 Z"/>
</svg>