<svg 
 xmlns="http://www.w3.org/2000/svg"
 xmlns:xlink="http://www.w3.org/1999/xlink"
 width="20px" height="20px">
<path fill-rule="evenodd"
 d="M19.557,10.993 L10.993,19.557 C10.436,20.114 9.534,20.114 8.978,19.557 L0.413,10.993 C-0.143,10.436 -0.143,9.534 0.413,8.978 L8.978,0.413 C9.534,-0.143 10.436,-0.143 10.993,0.413 L19.557,8.978 C20.114,9.534 20.114,10.436 19.557,10.993 ZM15.867,8.693 L13.000,6.000 L13.000,8.000 L8.000,8.000 L7.000,8.000 L6.000,8.000 L6.000,13.000 L8.000,13.000 L8.000,10.000 L13.000,10.000 L13.000,12.000 L15.867,9.298 C16.034,9.131 16.034,8.860 15.867,8.693 Z"/>
</svg>