<svg 
 xmlns="http://www.w3.org/2000/svg"
 xmlns:xlink="http://www.w3.org/1999/xlink"
 width="14px" height="19px">
<path fill-rule="evenodd"
 d="M12.965,10.650 L13.000,10.650 L7.000,19.000 L1.000,10.650 L1.035,10.650 C0.383,9.587 -0.000,8.339 -0.000,7.000 C-0.000,3.134 3.134,-0.000 7.000,-0.000 C10.866,-0.000 14.000,3.134 14.000,7.000 C14.000,8.339 13.617,9.587 12.965,10.650 ZM7.000,5.000 C5.895,5.000 5.000,5.895 5.000,7.000 C5.000,8.105 5.895,9.000 7.000,9.000 C8.105,9.000 9.000,8.105 9.000,7.000 C9.000,5.895 8.105,5.000 7.000,5.000 Z"/>
</svg>