<svg 
 xmlns="http://www.w3.org/2000/svg"
 xmlns:xlink="http://www.w3.org/1999/xlink">
<path fill-rule="evenodd"
 d="M17.991,17.292 L13.792,13.093 C15.020,11.702 15.770,9.882 15.770,7.881 C15.770,3.526 12.240,-0.005 7.884,-0.005 C3.529,-0.005 -0.002,3.526 -0.002,7.881 C-0.002,12.237 3.529,15.768 7.884,15.768 C9.884,15.768 11.705,15.017 13.095,13.790 L17.294,17.989 L17.991,17.292 ZM0.984,7.881 C0.984,4.076 4.079,0.981 7.884,0.981 C11.689,0.981 14.785,4.076 14.785,7.881 C14.785,11.686 11.689,14.782 7.884,14.782 C4.079,14.782 0.984,11.686 0.984,7.881 Z"/>
</svg>
