<!-- Generated by IcoMoon.io -->
<svg version="1.1" xmlns="http://www.w3.org/2000/svg" width="1024" height="1024" viewBox="0 0 1024 1024">
<title></title>
<g id="icomoon-ignore">
</g>
<path d="M4487.089 614.715l122.014 361.787-316.574-224.177-316.18 224.571 121.462-361.945-317.44-222.996 391.641 0.473 120.044-362.417 120.517 362.26 391.641-1.024-317.125 223.468zM3348.795 976.502l-316.574-224.177-316.18 224.571 121.462-361.945-317.44-222.996 391.641 0.473 120.044-362.417 120.517 362.26 391.641-1.024-317.125 223.468 122.014 361.787zM2088.487 976.502l-316.574-224.177-316.18 224.571 121.462-361.945-317.44-222.996 391.641 0.473 120.044-362.417 120.517 362.26 391.641-1.024-317.125 223.468 122.014 361.787zM828.18 976.502l-316.574-224.177-316.18 224.571 121.462-361.945-317.44-222.996 391.641 0.473 120.044-362.417 120.517 362.26 391.641-1.024-317.125 223.468 122.014 361.787z"></path>
</svg>
